<?xml version="1.0" encoding="UTF-8"?>
<svg xmlns="http://www.w3.org/2000/svg" xmlns:xlink="http://www.w3.org/1999/xlink" width="375pt" height="374.999991pt" viewBox="0 0 375 374.999991" version="1.2">
<defs>
<clipPath id="clip1">
  <path d="M 82.125 0 L 292.886719 0 C 338.238281 0 375.003906 36.769531 375.003906 82.125 L 375.003906 292.886719 C 375.003906 338.238281 338.238281 375.003906 292.886719 375.003906 L 82.125 375.003906 C 36.773438 375.003906 0.00390625 338.238281 0.00390625 292.886719 L 0.00390625 82.125 C 0.00390625 36.773438 36.773438 0.00390625 82.128906 0.00390625 Z M 82.125 0 "/>
</clipPath>
</defs>
<g id="surface1">
<g clip-path="url(#clip1)" clip-rule="nonzero">
<path style=" stroke:none;fill-rule:nonzero;fill:rgb(100%,100%,100%);fill-opacity:1;" d="M 0.00390625 0 L 0.00390625 375 L 375 375 L 375 0 Z M 0.00390625 0 "/>
</g>
<path style=" stroke:none;fill-rule:nonzero;fill:rgb(100%,100%,100%);fill-opacity:1;" d="M 120.179688 272.183594 L 120.214844 272.195312 L 107.390625 294.402344 C 102.710938 302.503906 92.347656 305.289062 84.242188 300.601562 C 76.136719 295.925781 73.355469 285.554688 78.035156 277.457031 L 87.480469 261.09375 L 88.386719 259.527344 C 90.007812 257.195312 94 253.183594 101.992188 253.929688 C 101.992188 253.929688 120.796875 255.980469 122.15625 265.75 C 122.15625 265.75 122.34375 268.960938 120.179688 272.183594 Z M 302.039062 215.464844 L 262.046875 215.464844 C 259.324219 215.273438 258.136719 214.304688 257.667969 213.75 L 257.640625 213.691406 L 214.835938 139.5625 L 214.792969 139.597656 L 212.214844 135.917969 C 208.011719 129.484375 201.332031 145.9375 201.332031 145.9375 C 193.363281 164.265625 202.457031 185.113281 205.636719 191.410156 L 265.082031 294.375 C 269.769531 302.488281 280.125 305.257812 288.238281 300.585938 C 296.339844 295.898438 299.125 285.542969 294.4375 277.425781 L 279.582031 251.6875 C 279.289062 251.058594 278.792969 249.359375 281.839844 249.359375 L 302.039062 249.359375 C 311.382812 249.359375 318.988281 241.773438 318.988281 232.410156 C 318.988281 223.050781 311.382812 215.464844 302.039062 215.464844 Z M 224.371094 238.503906 C 224.371094 238.503906 226.511719 249.359375 218.25 249.359375 L 70.449219 249.359375 C 61.089844 249.359375 53.503906 241.773438 53.503906 232.410156 C 53.503906 223.050781 61.089844 215.464844 70.449219 215.464844 L 108.449219 215.464844 C 114.582031 215.113281 116.039062 211.566406 116.039062 211.566406 L 116.070312 211.582031 L 165.675781 125.671875 L 165.660156 125.671875 C 166.554688 124.011719 165.808594 122.441406 165.675781 122.195312 L 149.300781 93.820312 C 144.617188 85.714844 147.394531 75.351562 155.496094 70.671875 C 163.613281 65.992188 173.96875 68.769531 178.65625 76.875 L 186.242188 90.03125 L 193.832031 76.898438 C 198.519531 68.792969 208.875 66.015625 216.988281 70.695312 C 225.089844 75.375 227.859375 85.738281 223.1875 93.84375 L 154.164062 213.398438 C 153.871094 214.117188 153.769531 215.257812 156.023438 215.464844 L 197.273438 215.464844 L 197.289062 215.859375 C 197.289062 215.859375 221.121094 216.238281 224.371094 238.503906 Z M 224.371094 238.503906 "/>
<path style=" stroke:none;fill-rule:nonzero;fill:rgb(16.859436%,16.859436%,16.859436%);fill-opacity:1;" d="M 37.503906 93.117188 L 37.503906 268.074219 L 187.5 322.289062 L 187.5 93.117188 Z M 37.503906 93.117188 "/>
<path style=" stroke:none;fill-rule:nonzero;fill:rgb(0%,0%,0%);fill-opacity:1;" d="M 187.5 93.117188 L 187.5 322.289062 L 337.496094 268.074219 L 337.496094 93.117188 Z M 187.5 93.117188 "/>
<path style=" stroke:none;fill-rule:nonzero;fill:rgb(23.139954%,23.139954%,23.139954%);fill-opacity:1;" d="M 187.5 52.890625 L 37.503906 93.117188 L 187.5 133.34375 L 337.496094 93.117188 Z M 187.5 52.890625 "/>
</g>
</svg>
